<svg width="23" height="23" viewBox="0 0 23 23" fill="none" xmlns="http://www.w3.org/2000/svg">
<path d="M13.4671 11.5L22.2609 2.72021C22.5237 2.45737 22.6714 2.10088 22.6714 1.72917C22.6714 1.35745 22.5237 1.00097 22.2609 0.738124C21.998 0.475284 21.6415 0.327621 21.2698 0.327621C20.8981 0.327621 20.5416 0.475284 20.2788 0.738124L11.499 9.53187L2.71919 0.738124C2.45635 0.475284 2.09986 0.327622 1.72815 0.327622C1.35643 0.327622 0.999944 0.475284 0.737104 0.738124C0.474263 1.00097 0.326601 1.35745 0.326601 1.72917C0.326601 2.10088 0.474263 2.45737 0.737104 2.72021L9.53085 11.5L0.737104 20.2798C0.606275 20.4096 0.502433 20.5639 0.431568 20.734C0.360704 20.9041 0.324219 21.0866 0.324219 21.2708C0.324219 21.4551 0.360704 21.6375 0.431568 21.8076C0.502433 21.9777 0.606275 22.1321 0.737104 22.2619C0.866865 22.3927 1.02125 22.4965 1.19134 22.5674C1.36144 22.6383 1.54388 22.6748 1.72815 22.6748C1.91241 22.6748 2.09486 22.6383 2.26495 22.5674C2.43505 22.4965 2.58943 22.3927 2.71919 22.2619L11.499 13.4681L20.2788 22.2619C20.4085 22.3927 20.5629 22.4965 20.733 22.5674C20.9031 22.6383 21.0855 22.6748 21.2698 22.6748C21.4541 22.6748 21.6365 22.6383 21.8066 22.5674C21.9767 22.4965 22.1311 22.3927 22.2609 22.2619C22.3917 22.1321 22.4955 21.9777 22.5664 21.8076C22.6373 21.6375 22.6737 21.4551 22.6737 21.2708C22.6737 21.0866 22.6373 20.9041 22.5664 20.734C22.4955 20.5639 22.3917 20.4096 22.2609 20.2798L13.4671 11.5Z" fill="#262626"/>
</svg>
