<svg width="88" height="48" viewBox="0 0 88 48" fill="none" xmlns="http://www.w3.org/2000/svg">
<path d="M44.4574 8.25506H42.8516V7.43604H46.9652V8.25506H45.3593V12.5442H44.4354V8.25506H44.4574Z" fill="white"/>
<path d="M49.957 7.43604H50.8809V9.46204H53.3227V7.43604H54.2466V12.5442H53.3227V10.3026H50.8809V12.5442H49.957V7.43604Z" fill="white"/>
<path d="M57.7676 7.43604H61.2213V8.25506H58.6915V9.50515H61.0893V10.3242H58.6915V11.7036H61.3532V12.5226H57.7676V7.43604Z" fill="white"/>
<path d="M46.9663 17.2641C46.7683 17.0701 46.5924 16.9193 46.4164 16.8546C46.2404 16.7899 46.0644 16.7468 45.8664 16.7468C45.6024 16.7468 45.3605 16.7899 45.1405 16.8977C44.9205 17.0055 44.7445 17.1132 44.5685 17.2857C44.3926 17.4581 44.2826 17.6521 44.1946 17.8676C44.1066 18.0831 44.0626 18.3202 44.0626 18.5788C44.0626 18.859 44.1066 19.0961 44.1946 19.3332C44.2826 19.5703 44.3926 19.7643 44.5685 19.9367C44.7445 20.1091 44.9205 20.2384 45.1405 20.3247C45.3605 20.4109 45.6024 20.4755 45.8664 20.4755C46.0864 20.4755 46.2844 20.4324 46.4824 20.3247C46.6803 20.2169 46.8563 20.066 47.0323 19.8505L47.8022 20.3893C47.5603 20.7126 47.2743 20.9282 46.9443 21.079C46.6144 21.2299 46.2404 21.2946 45.8664 21.2946C45.4705 21.2946 45.0965 21.2299 44.7665 21.1006C44.4366 20.9713 44.1506 20.7988 43.9086 20.5617C43.6666 20.3247 43.4686 20.0445 43.3367 19.7212C43.2047 19.3979 43.1387 19.0315 43.1387 18.622C43.1387 18.2124 43.2047 17.846 43.3367 17.5012C43.4686 17.1779 43.6666 16.8761 43.9086 16.6391C44.1506 16.402 44.4366 16.2295 44.7665 16.1002C45.0965 15.9709 45.4705 15.9062 45.8664 15.9062C46.2184 15.9062 46.5484 15.9709 46.8563 16.1002C47.1643 16.2295 47.4283 16.4235 47.6922 16.7253L46.9663 17.2641Z" fill="white"/>
<path d="M50.7715 16.0571H51.6954V18.0831H54.1372V16.0571H55.0611V21.1652H54.1372V18.9237H51.6954V21.1652H50.7715V16.0571Z" fill="white"/>
<path d="M58.5801 16.0571H62.0338V16.8762H59.504V18.1262H61.9018V18.9453H59.504V20.3247H62.1658V21.1437H58.5801V16.0571Z" fill="white"/>
<path d="M65.4434 16.0571H68.809V16.8762H66.3673V18.2125H68.6551V19.0315H66.3673V21.1437H65.4434V16.0571V16.0571Z" fill="white"/>
<path d="M43.3789 24.4199H44.3028V28.709H46.5246V29.528H43.3789V24.4199Z" fill="white"/>
<path d="M51.256 24.4199H52.048L54.2917 29.528H53.2358L52.7519 28.3642H50.4861L50.0241 29.528H48.9902L51.256 24.4199ZM52.4219 27.5667L51.63 25.4976L50.8161 27.5667H52.4219Z" fill="white"/>
<path d="M57.2383 24.4199H58.4702L60.9999 28.2133H61.0219V24.4199H61.9458V29.528H60.758L58.1842 25.6053H58.1622V29.528H57.2383V24.4199V24.4199Z" fill="white"/>
<path d="M65.4434 24.4199H68.897V25.2389H66.3673V26.489H68.765V27.3081H66.3673V28.6875H69.029V29.5065H65.4434V24.4199V24.4199Z" fill="white"/>
<path d="M43.3569 37.0068H43.6429L43.4669 38.2138H45.0288L45.2047 37.0068H45.4907L45.0947 39.8088H44.8088L45.0068 38.4725H43.4449L43.2469 39.8088H42.9609L43.3569 37.0068Z" fill="white"/>
<path d="M46.4162 38.9685C46.4162 39.0547 46.4162 39.1409 46.4382 39.2271C46.4602 39.3133 46.5042 39.378 46.5482 39.4427C46.5922 39.5073 46.6582 39.5504 46.7461 39.5935C46.8341 39.6366 46.9001 39.6366 47.0101 39.6366C47.1641 39.6366 47.2741 39.6151 47.4061 39.5289C47.5381 39.4427 47.6041 39.3996 47.6701 39.3133L47.846 39.4858C47.7141 39.6366 47.5821 39.7229 47.4281 39.7875C47.2741 39.8522 47.1421 39.8737 46.9661 39.8737C46.8341 39.8737 46.7021 39.8522 46.5922 39.8091C46.4822 39.766 46.3942 39.7013 46.3062 39.6151C46.2402 39.5289 46.1742 39.4211 46.1522 39.3133C46.1302 39.184 46.1082 39.0547 46.1302 38.9254C46.1522 38.7961 46.1962 38.6452 46.2622 38.5374C46.3282 38.4081 46.4162 38.3219 46.5042 38.2357C46.5922 38.1495 46.7241 38.0848 46.8341 38.0417C46.9661 37.9986 47.0761 37.9771 47.2301 37.9771C47.3621 37.9771 47.4941 37.9986 47.6041 38.0417C47.7141 38.0848 47.8021 38.1495 47.868 38.2357C47.934 38.3219 47.978 38.4081 48 38.5374C48.022 38.6452 48.022 38.7745 48 38.9038L47.978 39.0332H46.4162V38.9685ZM47.7361 38.753C47.7581 38.5805 47.7361 38.4297 47.6261 38.3219C47.5161 38.2141 47.3841 38.1495 47.1861 38.1495C47.0981 38.1495 47.0101 38.171 46.9221 38.1926C46.8341 38.2141 46.7681 38.2788 46.6802 38.3219C46.5922 38.365 46.5482 38.4512 46.5042 38.5159C46.4602 38.5805 46.4382 38.6668 46.4162 38.7314H47.7361V38.753Z" fill="white"/>
<path d="M48.8791 38.5372C48.8791 38.451 48.9011 38.3648 48.9011 38.2786C48.9011 38.1924 48.9231 38.0846 48.9451 37.9553H49.2091L49.1651 38.3001C49.1871 38.257 49.2311 38.1924 49.2751 38.1493C49.3191 38.1062 49.3631 38.063 49.4291 38.0199C49.4951 37.9768 49.539 37.9553 49.605 37.9337C49.671 37.9122 49.759 37.8906 49.825 37.8906C49.891 37.8906 49.957 37.8906 50.023 37.9122L49.935 38.1708C49.913 38.1493 49.847 38.1493 49.781 38.1493C49.671 38.1493 49.583 38.1708 49.5171 38.2139C49.4291 38.257 49.3631 38.3001 49.3191 38.3648C49.2531 38.4295 49.2091 38.4941 49.1871 38.5588C49.1431 38.6234 49.1431 38.6881 49.1211 38.7528L48.9671 39.8089H48.7031L48.8791 38.5372Z" fill="white"/>
<path d="M50.6388 38.9685C50.6388 39.0547 50.6388 39.1409 50.6608 39.2271C50.6828 39.3133 50.7268 39.378 50.7708 39.4427C50.8148 39.5073 50.8808 39.5504 50.9688 39.5935C51.0568 39.6366 51.1228 39.6366 51.2328 39.6366C51.3868 39.6366 51.4968 39.6151 51.6287 39.5289C51.7607 39.4427 51.8267 39.3996 51.8927 39.3133L52.0687 39.4858C51.9367 39.6366 51.8047 39.7229 51.6507 39.7875C51.4968 39.8522 51.3648 39.8737 51.1888 39.8737C51.0568 39.8737 50.9248 39.8522 50.8148 39.8091C50.7048 39.766 50.6168 39.7013 50.5288 39.6151C50.4629 39.5289 50.3969 39.4211 50.3749 39.3133C50.3529 39.184 50.3309 39.0547 50.3529 38.9254C50.3749 38.7961 50.4189 38.6452 50.4849 38.5374C50.5508 38.4081 50.6388 38.3219 50.7268 38.2357C50.8148 38.1495 50.9468 38.0848 51.0568 38.0417C51.1888 37.9986 51.2988 37.9771 51.4528 37.9771C51.5847 37.9771 51.7167 37.9986 51.8267 38.0417C51.9367 38.0848 52.0247 38.1495 52.0907 38.2357C52.1567 38.3219 52.2007 38.4081 52.2227 38.5374C52.2447 38.6452 52.2447 38.7745 52.2227 38.9038L52.2007 39.0332H50.6388V38.9685ZM51.9587 38.753C51.9807 38.5805 51.9587 38.4297 51.8487 38.3219C51.7387 38.2141 51.6068 38.1495 51.4088 38.1495C51.3208 38.1495 51.2328 38.171 51.1448 38.1926C51.0568 38.2141 50.9908 38.2788 50.9028 38.3219C50.8148 38.365 50.7708 38.4512 50.7268 38.5159C50.6828 38.5805 50.6608 38.6668 50.6388 38.7314H51.9587V38.753Z" fill="white"/>
<path d="M55.4793 38.1925H55.0394L54.7974 39.809H54.5334L54.7534 38.1925H54.3574L54.4014 37.9554H54.7974L54.8634 37.4382C54.9074 37.2011 54.9734 37.0071 55.1054 36.9209C55.2373 36.8131 55.3913 36.77 55.5893 36.77C55.6333 36.77 55.6553 36.77 55.6993 36.77C55.7433 36.77 55.7653 36.7916 55.8093 36.7916L55.7213 37.0287C55.6993 37.0287 55.6553 37.0071 55.6333 37.0071C55.5893 37.0071 55.5673 37.0071 55.5233 37.0071C55.4573 37.0071 55.3913 37.0287 55.3473 37.0502C55.3033 37.0718 55.2593 37.1149 55.2373 37.158C55.2153 37.2011 55.1933 37.2442 55.1713 37.3089C55.1493 37.3735 55.1493 37.4382 55.1274 37.5028L55.0614 37.977H55.5013L55.4793 38.1925Z" fill="white"/>
<path d="M57.9426 38.8819C57.9206 39.0328 57.8766 39.1621 57.8106 39.2699C57.7446 39.3992 57.6566 39.4854 57.5686 39.5716C57.4586 39.6579 57.3486 39.7225 57.2166 39.7656C57.0847 39.8087 56.9527 39.8303 56.7987 39.8303C56.6447 39.8303 56.5127 39.8087 56.4027 39.7656C56.2927 39.7225 56.1827 39.6579 56.1167 39.5716C56.0507 39.4854 55.9847 39.3777 55.9628 39.2699C55.9408 39.1406 55.9188 39.0113 55.9408 38.8819C55.9628 38.7526 56.0067 38.6017 56.0727 38.494C56.1387 38.3647 56.2267 38.2784 56.3147 38.1922C56.4247 38.106 56.5347 38.0414 56.6667 37.9983C56.7987 37.9552 56.9307 37.9336 57.0846 37.9336C57.2386 37.9336 57.3706 37.9552 57.4806 37.9983C57.5906 38.0414 57.7006 38.106 57.7666 38.1922C57.8326 38.2784 57.8986 38.3862 57.9206 38.494C57.9426 38.6233 57.9646 38.7526 57.9426 38.8819ZM57.6346 38.8819C57.6566 38.7742 57.6566 38.688 57.6346 38.6017C57.6126 38.5155 57.5686 38.4293 57.5246 38.3647C57.4806 38.3 57.4146 38.2569 57.3266 38.2138C57.2386 38.1707 57.1506 38.1491 57.0407 38.1491C56.9307 38.1491 56.8207 38.1707 56.7327 38.2138C56.6447 38.2569 56.5567 38.3 56.4907 38.3647C56.4247 38.4293 56.3587 38.5155 56.3147 38.6017C56.2707 38.688 56.2487 38.7957 56.2267 38.8819C56.2047 38.9897 56.2047 39.0759 56.2267 39.1621C56.2487 39.2483 56.2927 39.3346 56.3367 39.3992C56.3807 39.4639 56.4467 39.507 56.5347 39.5501C56.6227 39.5932 56.7107 39.6147 56.8207 39.6147C56.9307 39.6147 57.0407 39.5932 57.1286 39.5501C57.2166 39.507 57.3046 39.4639 57.3706 39.3992C57.4366 39.3346 57.5026 39.2483 57.5466 39.1621C57.5906 39.0759 57.6346 38.9897 57.6346 38.8819Z" fill="white"/>
<path d="M58.8225 38.5372C58.8225 38.451 58.8445 38.3648 58.8445 38.2786C58.8445 38.1924 58.8665 38.0846 58.8885 37.9553H59.1524L59.1084 38.3001C59.1304 38.257 59.1744 38.1924 59.2184 38.1493C59.2624 38.1062 59.3064 38.063 59.3724 38.0199C59.4384 37.9768 59.4824 37.9553 59.5484 37.9337C59.6144 37.9122 59.7024 37.8906 59.7684 37.8906C59.8344 37.8906 59.9004 37.8906 59.9664 37.9122L59.8784 38.1708C59.8564 38.1493 59.7904 38.1493 59.7244 38.1493C59.6144 38.1493 59.5264 38.1708 59.4604 38.2139C59.3724 38.257 59.3064 38.3001 59.2624 38.3648C59.1964 38.4295 59.1524 38.4941 59.1304 38.5588C59.0864 38.6234 59.0864 38.6881 59.0644 38.7528L58.9105 39.8089H58.6465L58.8225 38.5372Z" fill="white"/>
<path d="M62.2324 37.0068H62.5184L62.3424 38.2138H63.9043L64.0802 37.0068H64.3662L63.9703 39.8088H63.6843L63.8823 38.4725H62.3204L62.1224 39.8088H61.8145L62.2324 37.0068Z" fill="white"/>
<path d="M67.0266 38.8819C67.0046 39.0328 66.9606 39.1621 66.8946 39.2699C66.8286 39.3992 66.7406 39.4854 66.6526 39.5716C66.5426 39.6579 66.4326 39.7225 66.3006 39.7656C66.1686 39.8087 66.0366 39.8303 65.8827 39.8303C65.7287 39.8303 65.5967 39.8087 65.4867 39.7656C65.3767 39.7225 65.2667 39.6579 65.2007 39.5716C65.1347 39.4854 65.0687 39.3777 65.0467 39.2699C65.0247 39.1406 65.0027 39.0113 65.0247 38.8819C65.0467 38.7526 65.0907 38.6017 65.1567 38.494C65.2227 38.3862 65.3107 38.2784 65.4207 38.1922C65.5307 38.106 65.6407 38.0414 65.7727 37.9983C65.9047 37.9552 66.0367 37.9336 66.1906 37.9336C66.3446 37.9336 66.4766 37.9552 66.5866 37.9983C66.6966 38.0414 66.8066 38.106 66.8726 38.1922C66.9386 38.2784 67.0046 38.3862 67.0266 38.494C67.0486 38.6017 67.0486 38.7526 67.0266 38.8819ZM66.7186 38.8819C66.7406 38.7742 66.7406 38.688 66.7186 38.6017C66.6966 38.5155 66.6526 38.4293 66.6086 38.3647C66.5646 38.3 66.4986 38.2569 66.4106 38.2138C66.3226 38.1707 66.2346 38.1491 66.1246 38.1491C66.0146 38.1491 65.9047 38.1707 65.8167 38.2138C65.7287 38.2569 65.6407 38.3 65.5747 38.3647C65.5087 38.4293 65.4427 38.5155 65.3987 38.6017C65.3547 38.688 65.3327 38.7957 65.3107 38.8819C65.2887 38.9897 65.2887 39.0759 65.3107 39.1621C65.3327 39.2483 65.3767 39.3346 65.4207 39.3992C65.4647 39.4639 65.5307 39.507 65.6187 39.5501C65.7067 39.5932 65.7947 39.6147 65.9047 39.6147C66.0146 39.6147 66.1246 39.5932 66.2126 39.5501C66.3006 39.507 66.3886 39.4639 66.4546 39.3992C66.5206 39.3346 66.5866 39.2483 66.6306 39.1621C66.6746 39.0975 66.7186 38.9897 66.7186 38.8819Z" fill="white"/>
<path d="M67.907 38.3863C67.907 38.3217 67.929 38.257 67.929 38.1708C67.929 38.1062 67.929 38.0415 67.951 37.9553H68.2369L68.1929 38.2355C68.2369 38.1924 68.2809 38.1277 68.3249 38.0846C68.3689 38.0415 68.4349 38.0199 68.4789 37.9768C68.5449 37.9553 68.5889 37.9337 68.6549 37.9122C68.7209 37.8906 68.7649 37.8906 68.8309 37.8906C68.8749 37.8906 68.9409 37.8906 68.9849 37.9122C69.0509 37.9122 69.0949 37.9337 69.1389 37.9768C69.1828 37.9984 69.2269 38.0415 69.2708 38.0846C69.3148 38.1277 69.3368 38.1924 69.3588 38.2786C69.4028 38.2139 69.4468 38.1708 69.4908 38.1277C69.5348 38.0846 69.6008 38.0415 69.6668 37.9984C69.7328 37.9553 69.7988 37.9337 69.8428 37.9122C69.9088 37.8906 69.9748 37.8906 70.0408 37.8906C70.2828 37.8906 70.4587 37.9553 70.5467 38.0846C70.6347 38.2139 70.6787 38.3863 70.6567 38.6234L70.4807 39.8089H70.2168L70.3707 38.7312C70.3927 38.645 70.3927 38.5588 70.3927 38.4726C70.3927 38.4079 70.3707 38.3432 70.3487 38.3001C70.3267 38.257 70.2828 38.2139 70.2168 38.1924C70.1508 38.1708 70.0848 38.1493 69.9968 38.1493C69.8868 38.1493 69.8208 38.1708 69.7328 38.2139C69.6668 38.257 69.6008 38.3001 69.5568 38.3648C69.5128 38.4295 69.4688 38.4941 69.4248 38.5803C69.4028 38.6665 69.3808 38.7528 69.3588 38.839L69.2269 39.8304H68.9629L69.1169 38.7528C69.1389 38.6665 69.1389 38.5803 69.1389 38.4941C69.1389 38.4079 69.1169 38.3648 69.0949 38.3217C69.0729 38.2786 69.0289 38.2355 68.9629 38.2139C68.8969 38.1924 68.8309 38.1708 68.7429 38.1708C68.7209 38.1708 68.6989 38.1708 68.6329 38.1924C68.5669 38.2139 68.5009 38.2355 68.4349 38.2786C68.3689 38.3217 68.3029 38.4079 68.2369 38.4941C68.1709 38.5803 68.1269 38.7312 68.1049 38.8821L67.973 39.8304H67.709L67.907 38.3863Z" fill="white"/>
<path d="M71.7795 38.9685C71.7795 39.0547 71.7795 39.1409 71.8015 39.2271C71.8235 39.3133 71.8675 39.378 71.9115 39.4427C71.9555 39.5073 72.0214 39.5504 72.1094 39.5935C72.1974 39.6366 72.2634 39.6366 72.3734 39.6366C72.5274 39.6366 72.6374 39.6151 72.7694 39.5289C72.9014 39.4427 72.9674 39.3996 73.0333 39.3133L73.2093 39.4858C73.0773 39.6366 72.9454 39.7229 72.7914 39.7875C72.6374 39.8522 72.5054 39.8737 72.3294 39.8737C72.1974 39.8737 72.0654 39.8522 71.9554 39.8091C71.8455 39.766 71.7575 39.7013 71.6695 39.6151C71.6035 39.5289 71.5375 39.4211 71.5155 39.3133C71.4935 39.184 71.4715 39.0547 71.4935 38.9254C71.5155 38.7961 71.5595 38.6452 71.6255 38.5374C71.6915 38.4297 71.7795 38.3219 71.8675 38.2357C71.9554 38.1495 72.0874 38.0848 72.1974 38.0417C72.3294 37.9986 72.4394 37.9771 72.5934 37.9771C72.7474 37.9771 72.8574 37.9986 72.9674 38.0417C73.0773 38.0848 73.1653 38.1495 73.2313 38.2357C73.2973 38.3219 73.3413 38.4081 73.3633 38.5374C73.3853 38.6452 73.3853 38.7745 73.3633 38.9038L73.3413 39.0332H71.7795V38.9685ZM73.0993 38.753C73.1213 38.5805 73.0993 38.4297 72.9893 38.3219C72.8794 38.2141 72.7474 38.1495 72.5494 38.1495C72.4614 38.1495 72.3734 38.171 72.2854 38.1926C72.1974 38.2357 72.1314 38.2788 72.0434 38.3219C71.9774 38.3866 71.9115 38.4512 71.8675 38.5159C71.8235 38.5805 71.8015 38.6668 71.7795 38.7314H73.0993V38.753Z" fill="white"/>
<path d="M78.0043 39.3778C77.9383 39.4425 77.8723 39.5071 77.7843 39.5718C77.6963 39.6365 77.6084 39.6796 77.5204 39.7442C77.4324 39.7873 77.3224 39.8304 77.2124 39.852C77.1024 39.8736 76.9924 39.8951 76.8604 39.8951C76.6404 39.8951 76.4644 39.852 76.2885 39.7873C76.1125 39.7227 75.9805 39.6149 75.8485 39.4856C75.7385 39.3563 75.6505 39.2054 75.6065 39.0114C75.5625 38.8174 75.5405 38.645 75.5845 38.4295C75.6065 38.214 75.6725 38.02 75.7825 37.8476C75.8925 37.6751 76.0025 37.5027 76.1565 37.3734C76.3105 37.2441 76.4864 37.1363 76.6844 37.0716C76.8824 37.007 77.0804 36.9639 77.3004 36.9639C77.3884 36.9639 77.4764 36.9639 77.5643 36.9854C77.6523 37.007 77.7403 37.0285 77.8063 37.0716C77.8943 37.1147 77.9603 37.1578 78.0263 37.201C78.0923 37.2656 78.1583 37.3303 78.2023 37.3949L77.9163 37.5889C77.8943 37.5458 77.8503 37.5027 77.8063 37.4596C77.7623 37.4165 77.6963 37.3734 77.6523 37.3303C77.5863 37.2872 77.5203 37.2656 77.4544 37.2441C77.3884 37.2225 77.3004 37.2225 77.2344 37.2225C77.0584 37.2225 76.8824 37.2656 76.7284 37.3303C76.5744 37.3949 76.4425 37.4811 76.3105 37.5889C76.2005 37.6967 76.0905 37.826 76.0245 37.9769C75.9585 38.1277 75.8925 38.2786 75.8705 38.4295C75.8485 38.5804 75.8485 38.7528 75.8925 38.8821C75.9365 39.0114 75.9805 39.1623 76.0685 39.2701C76.1565 39.3778 76.2665 39.464 76.3985 39.5287C76.5304 39.5934 76.6844 39.6365 76.8824 39.6365C76.9484 39.6365 77.0364 39.6365 77.1024 39.6149C77.1684 39.5934 77.2564 39.5718 77.3224 39.5503C77.3884 39.5287 77.4764 39.4856 77.5424 39.4209C77.6083 39.3563 77.6743 39.2916 77.7403 39.227L78.0043 39.3778Z" fill="white"/>
<path d="M79.0824 36.813H79.3464L79.1484 38.2571C79.1924 38.2139 79.2364 38.1708 79.2804 38.1277C79.3244 38.0846 79.3904 38.0415 79.4564 38.02C79.5224 37.9984 79.5884 37.9553 79.6544 37.9553C79.7204 37.9338 79.7864 37.9338 79.8524 37.9338C80.0943 37.9338 80.2703 37.9984 80.3583 38.1277C80.4463 38.257 80.4903 38.4295 80.4683 38.6666L80.2923 39.852H80.0283L80.1823 38.8174C80.2043 38.7097 80.2043 38.6235 80.2043 38.5372C80.2043 38.451 80.1823 38.3864 80.1603 38.3433C80.1383 38.2786 80.0723 38.2571 80.0283 38.2139C79.9843 38.1708 79.8744 38.1708 79.7864 38.1708C79.7644 38.1708 79.7424 38.1708 79.6764 38.1924C79.6104 38.2139 79.5444 38.2355 79.4784 38.2786C79.4124 38.3217 79.3244 38.4079 79.2584 38.4941C79.1924 38.5803 79.1484 38.7312 79.1264 38.8821L78.9944 39.8304H78.7305L79.0824 36.813Z" fill="white"/>
<path d="M81.547 38.9685C81.547 39.0547 81.547 39.1409 81.569 39.2271C81.591 39.3133 81.635 39.378 81.679 39.4427C81.723 39.5073 81.789 39.5504 81.877 39.5935C81.965 39.6366 82.031 39.6366 82.141 39.6366C82.295 39.6366 82.405 39.6151 82.5369 39.5289C82.6689 39.4427 82.7349 39.3996 82.8009 39.3133L82.9769 39.4858C82.8449 39.6366 82.7129 39.7229 82.5589 39.7875C82.405 39.8522 82.273 39.8737 82.097 39.8737C81.965 39.8737 81.833 39.8522 81.723 39.8091C81.613 39.766 81.525 39.7013 81.437 39.6151C81.3711 39.5289 81.3051 39.4211 81.2831 39.3133C81.2611 39.184 81.2391 39.0547 81.2611 38.9254C81.2831 38.7961 81.3271 38.6452 81.393 38.5374C81.459 38.4297 81.547 38.3219 81.635 38.2357C81.723 38.1495 81.855 38.0848 81.965 38.0417C82.097 37.9986 82.207 37.9771 82.361 37.9771C82.515 37.9771 82.6249 37.9986 82.7349 38.0417C82.8449 38.0848 82.9329 38.1495 82.9989 38.2357C83.0649 38.3219 83.1089 38.4081 83.1309 38.5374C83.1529 38.6452 83.1529 38.7745 83.1309 38.9038L83.1089 39.0332H81.547V38.9685ZM82.8669 38.753C82.8889 38.5805 82.8669 38.4297 82.7569 38.3219C82.6469 38.2141 82.5149 38.1495 82.317 38.1495C82.229 38.1495 82.141 38.171 82.053 38.1926C81.965 38.2357 81.899 38.2788 81.811 38.3219C81.745 38.3866 81.679 38.4512 81.635 38.5159C81.591 38.5805 81.569 38.6668 81.547 38.7314H82.8669V38.753Z" fill="white"/>
<path d="M84.9344 38.1925H84.4944L84.2525 39.809H83.9885L84.2085 38.1925H83.8125L83.8565 37.9554H84.2525L84.3185 37.4382C84.3624 37.2011 84.4284 37.0071 84.5604 36.9209C84.6924 36.8131 84.8464 36.77 85.0444 36.77C85.0884 36.77 85.1104 36.77 85.1544 36.77C85.1984 36.77 85.2204 36.7916 85.2644 36.7916L85.1764 37.0287C85.1544 37.0287 85.1104 37.0071 85.0884 37.0071C85.0444 37.0071 85.0224 37.0071 84.9784 37.0071C84.9124 37.0071 84.8464 37.0287 84.8024 37.0502C84.7584 37.0718 84.7144 37.1149 84.6924 37.158C84.6704 37.2011 84.6484 37.2442 84.6264 37.3089C84.6044 37.3735 84.6044 37.4382 84.5824 37.5028L84.5164 37.977H84.9564L84.9344 38.1925Z" fill="white"/>
<path d="M86.5406 38.4076C86.5186 38.3214 86.4746 38.2783 86.4086 38.2352C86.3426 38.1921 86.2766 38.1705 86.1666 38.1705C86.1226 38.1705 86.0786 38.1705 86.0346 38.1921C85.9906 38.2136 85.9466 38.2136 85.9026 38.2352C85.8586 38.2567 85.8366 38.2783 85.7926 38.3214C85.7706 38.3645 85.7486 38.4076 85.7486 38.4507C85.7266 38.5369 85.7486 38.6016 85.8146 38.6447C85.8806 38.6878 85.9686 38.7094 86.0786 38.7525L86.3426 38.8171C86.4746 38.8387 86.5626 38.9033 86.6506 38.9896C86.7386 39.0758 86.7606 39.1835 86.7386 39.3129C86.7166 39.4206 86.6946 39.5068 86.6286 39.5715C86.5846 39.6362 86.5186 39.7008 86.4306 39.7439C86.3646 39.787 86.2766 39.8301 86.1886 39.8517C86.1006 39.8732 86.0126 39.8732 85.9026 39.8732C85.7486 39.8732 85.6167 39.8517 85.5067 39.787C85.3967 39.7224 85.2867 39.6362 85.2207 39.5068L85.4847 39.356C85.5287 39.4422 85.5947 39.5068 85.6607 39.5499C85.7267 39.593 85.8366 39.6146 85.9466 39.6146C85.9906 39.6146 86.0566 39.6146 86.1006 39.5931C86.1666 39.5715 86.2106 39.5715 86.2546 39.5284C86.2986 39.5068 86.3426 39.4637 86.3646 39.4206C86.3866 39.3775 86.4086 39.3344 86.4306 39.2913C86.4306 39.2482 86.4306 39.2051 86.4086 39.162C86.3866 39.1189 86.3646 39.0973 86.3426 39.0758C86.3206 39.0542 86.2766 39.0327 86.2326 39.0111C86.1886 38.9896 86.1446 38.9896 86.1006 38.968L85.8586 38.9033C85.8366 38.9033 85.7926 38.8818 85.7267 38.8602C85.6827 38.8387 85.6167 38.8171 85.5727 38.774C85.5287 38.7309 85.4847 38.6878 85.4627 38.6232C85.4407 38.5585 85.4187 38.4938 85.4407 38.4076C85.4627 38.3214 85.4847 38.2352 85.5287 38.149C85.5727 38.0628 85.6387 38.0197 85.7046 37.9766C85.7706 37.9335 85.8586 37.8903 85.9466 37.8688C86.0346 37.8472 86.1226 37.8257 86.2106 37.8257C86.3426 37.8257 86.4526 37.8472 86.5626 37.8903C86.6726 37.9335 86.7386 38.0197 86.7826 38.149L86.5406 38.4076Z" fill="white"/>
<path d="M87.2005 34.0542H42.8086V34.7224H87.2005V34.0542Z" fill="white"/>
<path d="M19.4024 26.7907C15.0028 26.7907 11.4612 23.299 11.4612 19.01C11.4612 14.6993 15.0248 11.2292 19.4024 11.2292C21.5362 11.2292 23.4941 12.0698 24.9239 13.4061L27.9597 10.2378C25.7379 8.14713 22.7241 6.87549 19.4024 6.87549C12.5611 6.87549 7.01758 12.3069 7.01758 19.01C7.01758 25.713 12.5611 31.1444 19.4024 31.1444C22.6581 31.1444 25.6059 29.9159 27.8057 27.9114L24.77 24.7431C23.3621 25.9932 21.4703 26.7907 19.4024 26.7907Z" fill="white"/>
<path d="M38.7604 18.9884C38.4085 8.57818 30.0932 0 19.3802 0C8.66721 0 0 8.49197 0 18.9884C0 24.4629 2.37578 29.4201 6.18143 32.8687L9.17316 29.7434C6.24743 27.0708 4.3996 23.2344 4.3996 18.9884C4.3996 10.8844 11.109 4.28909 19.4022 4.28909C27.6955 4.28909 34.1409 10.518 34.4708 18.622C34.7568 25.6483 27.7834 33.1057 21.47 38.1708V33.623H17.3344V41.2529V41.9857V47.18C24.7257 40.6709 39.1564 30.4547 38.7604 18.9884Z" fill="#D8AF49"/>
</svg>
