<svg width="29" height="32" viewBox="0 0 29 32" fill="none" xmlns="http://www.w3.org/2000/svg">
<path fill-rule="evenodd" clip-rule="evenodd" d="M3.5 3V29H15C15.8284 29 16.5 29.6716 16.5 30.5C16.5 31.3284 15.8284 32 15 32H2.5C1.39543 32 0.5 31.1046 0.5 30V2C0.5 0.895428 1.39543 0 2.5 0H15.7877C16.3303 0 16.8497 0.220463 17.2265 0.610811L23.9388 7.5628C24.2988 7.93565 24.5 8.4337 24.5 8.95199V12.5C24.5 13.3284 23.8284 14 23 14C22.1716 14 21.5 13.3284 21.5 12.5V12H16C14.067 12 12.5 10.433 12.5 8.5V3H3.5ZM15.5 3.14168L21.1563 9H16C15.7239 9 15.5 8.77614 15.5 8.5V3.14168ZM22.5 30C21.6716 30 21 29.3284 21 28.5V25.5H18C17.1716 25.5 16.5 24.8284 16.5 24C16.5 23.1716 17.1716 22.5 18 22.5H21V19.5C21 18.6716 21.6716 18 22.5 18C23.3284 18 24 18.6716 24 19.5V22.5H27C27.8284 22.5 28.5 23.1716 28.5 24C28.5 24.8284 27.8284 25.5 27 25.5H24V28.5C24 29.3284 23.3284 30 22.5 30Z" fill="#D9DCE1"/>
</svg>
